<?xml version="1.0" encoding="UTF-8" standalone="no"?>
<!-- Created with Inkscape (http://www.inkscape.org/) -->

<svg
   xmlns:dc="http://purl.org/dc/elements/1.1/"
   xmlns:cc="http://creativecommons.org/ns#"
   xmlns:rdf="http://www.w3.org/1999/02/22-rdf-syntax-ns#"
   xmlns:svg="http://www.w3.org/2000/svg"
   xmlns="http://www.w3.org/2000/svg"
   xmlns:xlink="http://www.w3.org/1999/xlink"
   xmlns:sodipodi="http://sodipodi.sourceforge.net/DTD/sodipodi-0.dtd"
   xmlns:inkscape="http://www.inkscape.org/namespaces/inkscape"
   width="210mm"
   height="297mm"
   id="svg2"
   version="1.1"
   inkscape:version="0.48+devel r13430"
   viewBox="0 0 744.09447 1052.3622"
   sodipodi:docname="titre.svg">
  <defs
     id="defs4">
    <linearGradient
       inkscape:collect="always"
       id="linearGradient7569">
      <stop
         style="stop-color:#cbfe52;stop-opacity:1"
         offset="0"
         id="stop7571" />
      <stop
         style="stop-color:#acfb3f;stop-opacity:1"
         offset="1"
         id="stop7573" />
    </linearGradient>
    <linearGradient
       inkscape:collect="always"
       xlink:href="#linearGradient7569"
       id="linearGradient7581"
       x1="325.26913"
       y1="483.64627"
       x2="330.31985"
       y2="563.4483"
       gradientUnits="userSpaceOnUse" />
    <linearGradient
       inkscape:collect="always"
       xlink:href="#linearGradient7569"
       id="linearGradient7583"
       x1="325.26913"
       y1="483.64627"
       x2="330.31985"
       y2="563.4483"
       gradientUnits="userSpaceOnUse"
       gradientTransform="matrix(2.3935161,0,0,2.3935161,-230.1219,-418.76792)" />
    <linearGradient
       inkscape:collect="always"
       xlink:href="#linearGradient7569"
       id="linearGradient7585"
       x1="327.28943"
       y1="266.46347"
       x2="327.2894"
       y2="399.80359"
       gradientUnits="userSpaceOnUse"
       gradientTransform="matrix(2.2376882,0,0,2.2376882,-125.7218,-239.98217)" />
    <filter
       inkscape:collect="always"
       style="color-interpolation-filters:sRGB"
       id="filter7662"
       x="-0.045447497"
       width="1.090895"
       y="-0.059679125"
       height="1.1193583">
      <feGaussianBlur
         inkscape:collect="always"
         stdDeviation="8.9230238"
         id="feGaussianBlur7664" />
    </filter>
    <linearGradient
       inkscape:collect="always"
       xlink:href="#linearGradient7569"
       id="linearGradient7677"
       gradientUnits="userSpaceOnUse"
       x1="325.26913"
       y1="483.64627"
       x2="330.31985"
       y2="563.4483" />
    <linearGradient
       inkscape:collect="always"
       xlink:href="#linearGradient7569"
       id="linearGradient7680"
       gradientUnits="userSpaceOnUse"
       x1="325.26913"
       y1="483.64627"
       x2="330.31985"
       y2="563.4483" />
    <linearGradient
       inkscape:collect="always"
       xlink:href="#linearGradient7569"
       id="linearGradient7683"
       gradientUnits="userSpaceOnUse"
       x1="325.26913"
       y1="483.64627"
       x2="330.31985"
       y2="563.4483" />
    <linearGradient
       inkscape:collect="always"
       xlink:href="#linearGradient7569"
       id="linearGradient7686"
       gradientUnits="userSpaceOnUse"
       x1="325.26913"
       y1="483.64627"
       x2="330.31985"
       y2="563.4483" />
    <linearGradient
       inkscape:collect="always"
       xlink:href="#linearGradient7569"
       id="linearGradient7689"
       gradientUnits="userSpaceOnUse"
       x1="325.26913"
       y1="483.64627"
       x2="330.31985"
       y2="563.4483" />
    <linearGradient
       inkscape:collect="always"
       xlink:href="#linearGradient7569"
       id="linearGradient7791"
       gradientUnits="userSpaceOnUse"
       x1="325.26913"
       y1="483.64627"
       x2="330.31985"
       y2="563.4483" />
    <linearGradient
       inkscape:collect="always"
       xlink:href="#linearGradient7569"
       id="linearGradient7915"
       gradientUnits="userSpaceOnUse"
       gradientTransform="matrix(2.3935161,0,0,2.3935161,-230.1219,-418.76792)"
       x1="327.28943"
       y1="266.46347"
       x2="327.2894"
       y2="399.80359" />
  </defs>
  <sodipodi:namedview
     id="base"
     pagecolor="#ffffff"
     bordercolor="#666666"
     borderopacity="1.0"
     inkscape:pageopacity="0.0"
     inkscape:pageshadow="2"
     inkscape:zoom="0.35"
     inkscape:cx="899.84216"
     inkscape:cy="503.71529"
     inkscape:document-units="px"
     inkscape:current-layer="layer1"
     showgrid="false"
     inkscape:window-width="1366"
     inkscape:window-height="711"
     inkscape:window-x="0"
     inkscape:window-y="328"
     inkscape:window-maximized="1" />
  <metadata
     id="metadata7">
    <rdf:RDF>
      <cc:Work
         rdf:about="">
        <dc:format>image/svg+xml</dc:format>
        <dc:type
           rdf:resource="http://purl.org/dc/dcmitype/StillImage" />
        <dc:title></dc:title>
      </cc:Work>
    </rdf:RDF>
  </metadata>
  <g
     inkscape:label="Calque 1"
     inkscape:groupmode="layer"
     id="layer1">
    <g
       id="g7952"
       inkscape:export-xdpi="95"
       inkscape:export-ydpi="95">
      <g
         transform="matrix(2.3935161,0,0,2.3935161,-230.1219,-418.76792)"
         style="filter:url(#filter7662)"
         id="g7599">
        <g
           id="text6751"
           style="font-style:normal;font-weight:normal;font-size:132.14112854px;line-height:125%;font-family:'Bitstream Vera Sans';text-align:end;letter-spacing:0px;word-spacing:0px;text-anchor:end;fill:#41576e;fill-opacity:1;stroke:none;stroke-width:1px;stroke-linecap:butt;stroke-linejoin:miter;stroke-opacity:1">
          <path
             inkscape:connector-curvature="0"
             id="path7937"
             d="m 238.84965,493.80894 c 2.22403,18.5917 -1.56841,38.66771 -14.1391,53.12074 -12.95412,15.76929 -33.20665,23.52153 -52.9886,26.0318 -15.30578,2.12344 -30.89809,1.24658 -46.11725,-1.18927 -1.4171,-6.01168 -1.05195,-12.43513 -1.45355,-18.6319 -0.74349,-25.47826 -0.51807,-51.00308 -0.49554,-76.50971 0.2962,-17.31781 0.38399,-34.65424 1.42052,-51.93147 0.4017,-3.06427 -0.27192,-7.74183 4.47069,-6.73674 23.06555,-3.57179 47.88515,-1.51866 68.37211,10.43669 18.47643,10.54075 32.14108,28.83091 37.75933,49.28865 1.61973,5.21561 2.64804,10.67442 3.17139,16.12121 z m -73.86689,-40.56732 c 0.12446,17.76613 1.50226,35.49708 2.70489,53.22089 0.60758,7.53321 0.9373,15.20367 2.05219,22.62811 12.23602,1.7659 23.23608,-7.31603 28.67462,-17.57477 8.14934,-15.3259 3.71752,-35.18805 -8.62672,-46.94764 -6.64303,-6.27216 -15.39709,-11.50333 -24.80498,-11.32659 z"
             style="font-style:normal;font-variant:normal;font-weight:normal;font-stretch:normal;font-family:Big_Bottom_Cartoon;-inkscape-font-specification:Big_Bottom_Cartoon;fill:#41576e;fill-opacity:1" />
          <path
             inkscape:connector-curvature="0"
             id="path7939"
             d="m 300.159,559.87951 c -1.49224,2.20667 -4.10873,4.79615 -6.47491,6.7392 -9.50453,7.5307 -23.43226,8.44767 -33.96027,2.51068 -11.99726,-6.12928 -19.43078,-18.97848 -21.20251,-32.07345 -1.82605,-13.65692 0.34342,-28.19511 7.62501,-40.04258 6.36391,-10.16853 17.40087,-17.40655 29.43443,-18.40065 9.46154,-1.15053 19.46612,1.35924 26.95679,7.26777 3.20472,2.81342 -0.55076,-8.6078 4.62494,-7.23474 8.77058,-0.40988 17.65532,-0.24185 26.29609,1.45356 2.89448,-0.0469 2.20642,2.67465 2.2464,4.54316 -0.76464,15.06677 -1.52694,30.18892 -1.05713,45.30344 0.18703,12.78694 1.2904,25.54222 1.98212,38.2863 -0.10519,1.54303 0.6278,4.41591 -1.84998,4.20071 -6.24811,0.88714 -12.62258,0.43129 -18.92921,0.49554 -4.8652,-0.44698 -9.96369,0.009 -14.63464,-1.42052 -2.25248,-3.42336 -0.90551,-7.86121 -1.05713,-11.62842 z m -12.5534,-50.87434 c -8.68369,-1.57395 -16.0109,7.46175 -15.59266,15.64825 0.14234,8.48379 9.41038,16.51922 17.83906,13.12548 6.04533,-1.80775 10.80219,-7.45279 11.0421,-13.83395 0.74082,-7.74379 -6.0348,-13.91453 -13.2885,-14.93978 z"
             style="font-style:normal;font-variant:normal;font-weight:normal;font-stretch:normal;font-family:Big_Bottom_Cartoon;-inkscape-font-specification:Big_Bottom_Cartoon;fill:#41576e;fill-opacity:1" />
          <path
             inkscape:connector-curvature="0"
             id="path7941"
             d="m 353.83514,477.68773 c 5.05103,-2.24306 10.8958,-1.66587 16.32836,-1.5857 4.59953,0.30098 9.54828,0.15353 13.79982,2.11426 1.86848,6.26796 1.8117,13.01661 2.60979,19.52385 1.10337,15.6656 2.01501,31.35901 2.01514,47.07528 0.21172,6.161 -0.025,12.35141 -0.39642,18.49976 -0.72335,2.7499 0.29536,8.08214 -3.6525,8.4782 -10.43789,1.287 -21.04711,1.05659 -31.49704,-0.0212 -4.42177,0.49853 -6.41118,-3.10983 -5.81421,-7.00348 -0.86591,-15.35953 0.58158,-30.75793 1.52336,-46.08482 1.21348,-13.29754 1.99803,-26.70449 4.55513,-39.80691 0.15452,-0.4014 0.0989,-0.9397 0.52857,-1.18927 z"
             style="font-style:normal;font-variant:normal;font-weight:normal;font-stretch:normal;font-family:Big_Bottom_Cartoon;-inkscape-font-specification:Big_Bottom_Cartoon;fill:#41576e;fill-opacity:1" />
          <path
             id="path7943"
             style="font-style:normal;font-variant:normal;font-weight:normal;font-stretch:normal;font-family:Big_Bottom_Cartoon;-inkscape-font-specification:Big_Bottom_Cartoon;fill:#41576e;fill-opacity:1"
             d="m 395.52154,479.40556 q 0,0 0.13214,-0.13214 0.13214,0 0.26428,0 0.26428,0 0.52857,-0.13214 0.26428,0 0.52856,0 0.39642,0 0.79285,0 0.39642,-0.13214 0.79284,-0.13214 0.52857,0 1.05713,0 0.52857,-0.13214 1.05713,-0.13214 0.66071,0 1.32141,0 0.66071,-0.13215 1.32142,-0.13215 0.6607,0 1.45355,0 0.79284,0 1.58569,-0.13214 0.79285,0 1.58569,0 0.92499,0 1.71784,-0.13214 0.92499,0 1.84998,0 0.92498,0 1.98211,0 0.92499,-0.13214 1.98212,-0.13214 0.92499,0 1.98212,0 1.05712,0 2.11425,0 1.05713,-0.13214 2.2464,-0.13214 1.05713,0 2.2464,0 1.05713,0 2.2464,0 1.18927,0 2.37854,-0.13214 1.05713,0 2.2464,0 1.18927,0 2.51068,0 1.18927,0 2.37854,0 1.18927,0 2.37854,-0.13214 1.32141,0 2.51068,0 1.18927,0 2.51069,0 1.18927,0 2.51068,0 1.18927,0 2.37854,0 1.32141,0 2.51068,0 1.32141,0 2.51068,0 1.18927,0 2.51068,0 1.18927,0 2.37854,0 1.18927,0 2.37854,0 1.18927,0 2.37854,0 1.18927,0 2.37854,0 1.18927,0 2.2464,0 1.18927,0 2.37854,0 1.05713,0.13214 2.11426,0.13214 1.05713,0 2.2464,0 0.92499,0 1.98212,0 1.05713,0 2.11426,0.13214 0.92498,0 1.84997,0 0.92499,0 1.98212,0 0.79284,0 1.71783,0.13214 0.92499,0 1.71784,0 0.79284,0 1.58569,0.13214 0.79285,0 1.45355,0 0.79285,0.13214 1.45356,0.13214 0.6607,0 1.32141,0.13214 0.52856,0 1.18927,0 0.52856,0.13215 1.05713,0.13215 0.39642,0 0.92498,0.13214 0.39643,0 0.79285,0.13214 0.26428,0 0.66071,0 0.26428,0.13214 0.52856,0.13214 0.13214,0.13214 0.39642,0.13214 0.13215,0.13214 0.13215,0.13214 0.13214,0.13214 0.13214,0.13214 0,0.26428 -0.13214,0.39643 -0.13215,0.13214 -0.13215,0.39642 -0.26428,0.26428 -0.39642,0.6607 -0.26428,0.26429 -0.52856,0.66071 -0.26429,0.52857 -0.52857,0.92499 -0.39642,0.52856 -0.6607,1.05713 -0.39643,0.52856 -0.79285,1.05713 -0.52857,0.6607 -0.92499,1.18927 -0.52856,0.79284 -0.92499,1.45355 -0.52856,0.6607 -1.05713,1.45355 -0.52856,0.66071 -1.18927,1.45355 -0.52856,0.79285 -1.18927,1.5857 -0.6607,0.92499 -1.18927,1.71783 -0.6607,0.92499 -1.32141,1.71784 -0.6607,0.92498 -1.45355,1.84997 -0.66071,0.92499 -1.32141,1.84998 -0.79285,0.92499 -1.45355,1.84997 -0.79285,0.92499 -1.45356,1.98212 -0.79284,0.92499 -1.45355,1.84998 -0.79284,1.05713 -1.58569,1.98211 -0.79285,0.92499 -1.45355,1.98212 -0.79285,0.92499 -1.5857,1.98212 -0.6607,0.92499 -1.45355,1.98211 -0.79285,0.92499 -1.58569,1.84998 -0.66071,0.92499 -1.45356,1.98212 -0.6607,0.92499 -1.45355,1.84997 -0.6607,0.92499 -1.45355,1.84998 -0.66071,0.92499 -1.32141,1.71783 -0.66071,0.92499 -1.45355,1.71784 -0.52857,0.92499 -1.18927,1.71783 -0.66071,0.79285 -1.32142,1.5857 -0.52856,0.79284 -1.18927,1.58569 -0.52856,0.66071 -1.05713,1.32141 -0.52856,0.66071 -1.05712,1.32141 -0.52857,0.66071 -0.92499,1.32141 -0.52857,0.52857 -0.92499,1.05713 -0.39642,0.52857 -0.79285,0.92499 -0.26428,0.52857 -0.6607,0.92499 -0.26428,0.39642 -0.52857,0.6607 -0.26428,0.26429 -0.52856,0.66071 -0.13214,0.13214 -0.26428,0.39642 -0.13214,0.13214 -0.26429,0.26429 -0.13214,0 0,0 0,0 0.13215,0 0.26428,-0.13215 0.52856,-0.13215 0.52856,-0.13214 0.92499,-0.13214 0.6607,-0.13214 1.18927,-0.26428 0.79284,-0.13214 1.45355,-0.39642 0.79285,-0.13214 1.71783,-0.26428 0.92499,-0.26429 1.84998,-0.39643 1.05713,-0.26428 1.98212,-0.52856 1.05713,-0.13214 2.2464,-0.39643 1.05713,-0.26428 2.2464,-0.39642 1.05712,-0.26428 2.2464,-0.52856 1.18927,-0.13214 2.37854,-0.39643 1.18927,-0.26428 2.24639,-0.39642 1.18927,-0.26428 2.37854,-0.39642 1.05713,-0.26429 2.2464,-0.39643 1.05713,-0.13214 2.11426,-0.26428 0.92499,-0.13214 1.84998,-0.26428 0.92499,-0.13214 1.84997,-0.26428 0.79285,0 1.5857,-0.13215 0.6607,0 1.32141,0 0.52856,0 1.05713,0 0.39642,0 0.79284,0.13215 0.26429,0.13214 0.39643,0.26428 0.13214,0.13214 0.13214,0.39642 0.13214,0.39642 0.26428,0.79285 0.13214,0.52856 0.26428,1.05713 0.13214,0.6607 0.26429,1.32141 0.13214,0.79285 0.26428,1.58569 0.13214,0.79285 0.39642,1.71784 0.13214,0.92498 0.26428,1.84997 0.13214,1.05713 0.26429,2.11426 0.13214,1.05713 0.26428,2.11426 0.13214,1.18927 0.26428,2.2464 0.26428,1.18927 0.39642,2.37854 0.13214,1.05713 0.13214,2.2464 0.13215,1.18927 0.26429,2.37854 0.13214,1.05713 0.26428,2.2464 0.13214,1.05713 0.13214,2.2464 0.13214,1.05713 0.26428,2.11425 0,0.92499 0.13214,1.98212 0,0.92499 0,1.84998 0.13214,0.79284 0.13214,1.58569 0,0.79285 0,1.45355 0,0.66071 -0.13214,1.32141 0,0.39643 0,0.92499 -0.13214,0.39643 -0.13214,0.66071 -0.13214,0.26428 -0.26428,0.39642 -0.13214,0 -0.13214,0 -0.26428,0 -0.39642,0.13214 -0.26429,0 -0.39643,0 -0.39642,0 -0.6607,0.13214 -0.39643,0 -0.79285,0 -0.39642,0.13214 -0.79285,0.13214 -0.52856,0 -1.05713,0.13215 -0.52856,0 -1.05712,0 -0.66071,0.13214 -1.32142,0.13214 -0.6607,0 -1.32141,0.13214 -0.79284,0 -1.45355,0 -0.79285,0.13214 -1.58569,0.13214 -0.79285,0 -1.5857,0.13214 -0.92498,0 -1.71783,0 -0.92499,0.13214 -1.84998,0.13214 -0.92499,0 -1.98211,0.13214 -0.92499,0 -1.84998,0 -1.05713,0.13214 -2.11426,0.13214 -1.05713,0 -2.11426,0.13214 -1.05713,0 -2.11425,0 -1.05713,0.13215 -2.2464,0.13215 -1.05713,0 -2.2464,0.13214 -1.18927,0 -2.2464,0 -1.18927,0.13214 -2.37854,0.13214 -1.18927,0 -2.37854,0 -1.18927,0.13214 -2.37854,0.13214 -1.18927,0 -2.37854,0 -1.32141,0.13214 -2.51068,0.13214 -1.18927,0 -2.37854,0 -1.32142,0 -2.51069,0.13214 -1.18927,0 -2.37854,0 -1.32141,0 -2.51068,0 -1.18927,0 -2.37854,0.13214 -1.18927,0 -2.51068,0 -1.18927,0 -2.37854,0 -1.18927,0 -2.37854,0 -1.18927,0 -2.37854,0 -1.05713,0 -2.2464,0 -1.18927,0 -2.2464,0 -1.18927,0 -2.2464,0 -1.05713,0 -2.11426,0 -1.05713,0 -2.11425,0 -1.05713,0 -2.11426,0 -0.92499,-0.13214 -1.98212,-0.13214 -0.92499,0 -1.84998,0 -0.92498,0 -1.84997,-0.13214 -0.92499,0 -1.71784,0 -0.92498,0 -1.71783,-0.13214 -0.79285,0 -1.58569,-0.13214 -0.66071,0 -1.45356,0 -0.6607,-0.13214 -1.32141,-0.13214 -0.6607,-0.13214 -1.32141,-0.13214 -0.52856,-0.13215 -1.18927,-0.13215 -0.39642,-0.13214 -0.92499,-0.13214 -0.52856,-0.13214 -0.92498,-0.13214 -0.39643,-0.13214 -0.79285,-0.26428 -0.26428,0 -0.66071,-0.13214 -0.26428,-0.13214 -0.52856,-0.26428 -0.13214,0 -0.26428,-0.13214 -0.13214,-0.13215 -0.26429,-0.26429 0,-0.13214 0,-0.39642 0,-0.26428 0,-0.39642 0,-0.39643 0.13215,-0.66071 0.13214,-0.39642 0.26428,-0.79285 0.26428,-0.39642 0.39642,-0.79284 0.26428,-0.52857 0.52857,-1.05713 0.26428,-0.52857 0.52856,-1.05713 0.39642,-0.66071 0.79285,-1.18927 0.39642,-0.66071 0.79284,-1.32141 0.39643,-0.66071 0.79285,-1.32141 0.52856,-0.66071 0.92499,-1.45356 0.52856,-0.6607 1.05713,-1.45355 0.52856,-0.79284 1.05713,-1.58569 0.6607,-0.79285 1.18927,-1.5857 0.6607,-0.92498 1.18927,-1.71783 0.6607,-0.92499 1.32141,-1.71783 0.6607,-0.92499 1.32141,-1.71784 0.6607,-0.92499 1.32141,-1.84998 0.66071,-0.92498 1.32141,-1.84997 0.79285,-0.92499 1.45355,-1.84998 0.66071,-0.92498 1.45356,-1.84997 0.6607,-0.92499 1.45355,-1.84998 0.6607,-1.05713 1.45355,-1.98212 0.66071,-0.92498 1.45355,-1.84997 0.66071,-0.92499 1.45356,-1.84998 0.79284,-0.92498 1.45355,-1.84997 0.79285,-0.92499 1.45355,-1.84998 0.66071,-0.92499 1.45355,-1.84997 0.66071,-0.79285 1.45356,-1.71784 0.6607,-0.92499 1.32141,-1.71783 0.6607,-0.92499 1.32141,-1.71784 0.6607,-0.79284 1.32141,-1.58569 0.66071,-0.79285 1.32141,-1.5857 0.52857,-0.79284 1.18927,-1.58569 0.52857,-0.6607 1.18927,-1.32141 0.52857,-0.79285 1.05713,-1.45355 0.52856,-0.52857 1.05713,-1.18927 0.52856,-0.66071 0.92499,-1.18927 0.52856,-0.52857 0.92498,-1.05713 0.39643,-0.52857 0.79285,-1.05713 0.39643,-0.39642 0.79285,-0.79285 0.26428,-0.39642 0.52856,-0.79284 0.26429,-0.26429 0.52857,-0.66071 0.26428,-0.26428 0.39642,-0.39642 0.26428,-0.26429 0.39642,-0.39643 0,-0.13214 0.13215,-0.26428 0.13214,-0.13214 0.13214,-0.13214 -0.13214,0.13214 -0.26429,0.13214 -0.26428,0 -0.52856,0 -0.39642,0.13214 -0.79285,0.13214 -0.6607,0.13214 -1.18927,0.26428 -0.79284,0 -1.45355,0.13215 -0.79285,0.13214 -1.58569,0.26428 -0.92499,0.13214 -1.84998,0.26428 -1.05713,0.13214 -2.11426,0.26428 -1.05713,0.13214 -2.11426,0.39643 -1.18927,0.13214 -2.24639,0.26428 -1.18927,0.13214 -2.37854,0.26428 -1.18927,0.13214 -2.51069,0.26428 -1.18927,0.13214 -2.37854,0.39643 -1.18927,0.13214 -2.37854,0.26428 -1.32141,0.13214 -2.51068,0.13214 -1.05713,0.13214 -2.2464,0.26428 -1.18927,0.13214 -2.2464,0.26428 -1.05713,0 -2.11425,0.13214 -0.92499,0 -1.98212,0 -0.79285,0.13215 -1.71784,0.13215 -0.79284,0 -1.58569,0 -0.66071,-0.13215 -1.32141,-0.13215 -0.39642,-0.13214 -0.92499,-0.13214 -0.39642,-0.13214 -0.79285,-0.26428 -0.26428,-0.13214 -0.39642,-0.26428 -0.13214,-0.39642 -0.13214,-0.66071 -0.13214,-0.52856 -0.26428,-1.05713 -0.13214,-0.6607 -0.26428,-1.32141 -0.13215,-0.79284 -0.26429,-1.58569 0,-0.92499 -0.13214,-1.71784 -0.13214,-1.05712 -0.26428,-2.11425 0,-1.05713 -0.13214,-2.11426 -0.13214,-1.18927 -0.13214,-2.2464 -0.13214,-1.18927 -0.13214,-2.37854 -0.13214,-1.18927 -0.13214,-2.37854 0,-1.18927 -0.13215,-2.37854 0,-1.05713 0,-2.2464 0,-1.18927 -0.13214,-2.2464 0,-1.05713 0,-2.11426 0,-0.92499 0,-1.84997 0.13214,-0.79285 0.13214,-1.71784 0,-0.6607 0,-1.45355 0.13215,-0.52857 0.13215,-1.05713 0.13214,-0.39642 0.13214,-0.79285 0.13214,-0.26428 0.26428,-0.39642 z m 10.57129,8.85346 q 0,0 0,0 0,0 0,0 0,0 0,0 z" />
          <path
             inkscape:connector-curvature="0"
             id="path7945"
             d="m 557.73096,559.87951 c -1.49225,2.20667 -4.10873,4.79615 -6.47492,6.7392 -9.50453,7.53071 -23.43226,8.44767 -33.96027,2.51068 -11.99726,-6.12928 -19.43077,-18.97848 -21.20251,-32.07345 -1.82603,-13.65692 0.34341,-28.19511 7.62501,-40.04258 6.36392,-10.16852 17.40087,-17.40656 29.43444,-18.40065 9.46154,-1.15053 19.46612,1.35924 26.95679,7.26777 3.20471,2.81342 -0.55077,-8.60781 4.62494,-7.23474 8.77058,-0.40988 17.65531,-0.24185 26.29608,1.45356 2.89448,-0.0469 2.20642,2.67466 2.2464,4.54316 -0.76463,15.06677 -1.52695,30.18892 -1.05713,45.30344 0.18704,12.78694 1.29041,25.54221 1.98212,38.2863 -0.10519,1.54304 0.62781,4.41591 -1.84998,4.20071 -6.24811,0.88714 -12.62258,0.43129 -18.92922,0.49554 -4.86519,-0.44698 -9.96368,0.009 -14.63462,-1.42052 -2.25249,-3.42336 -0.90551,-7.86121 -1.05713,-11.62842 z m -12.55341,-50.87434 c -8.68369,-1.57395 -16.0109,7.46176 -15.59265,15.64825 0.14232,8.48379 9.41038,16.51922 17.83905,13.12548 6.04533,-1.80775 10.8022,-7.45279 11.0421,-13.83395 0.74083,-7.74379 -6.0348,-13.91453 -13.2885,-14.93978 z"
             style="font-style:normal;font-variant:normal;font-weight:normal;font-stretch:normal;font-family:Big_Bottom_Cartoon;-inkscape-font-specification:Big_Bottom_Cartoon;fill:#41576e;fill-opacity:1" />
        </g>
        <text
           sodipodi:linespacing="125%"
           id="text6759"
           y="397.17798"
           x="597.26941"
           style="font-style:normal;font-weight:normal;font-size:150.0554657px;line-height:125%;font-family:'Bitstream Vera Sans';text-align:end;letter-spacing:0.1px;word-spacing:0px;text-anchor:end;fill:#41576e;fill-opacity:1;stroke:none;stroke-width:1px;stroke-linecap:butt;stroke-linejoin:miter;stroke-opacity:1"
           xml:space="preserve"><tspan
             dx="0 0 0 0 7.2600002"
             style="font-style:normal;font-variant:normal;font-weight:normal;font-stretch:normal;font-family:Big_Bottom_Cartoon;-inkscape-font-specification:Big_Bottom_Cartoon;letter-spacing:0.1px;fill:#41576e;fill-opacity:1"
             y="397.17798"
             x="597.36945"
             id="tspan6761"
             sodipodi:role="line">Péril</tspan></text>
        <text
           sodipodi:linespacing="125%"
           id="text6765"
           y="463.79074"
           x="399.03821"
           style="font-style:normal;font-weight:normal;font-size:40px;line-height:125%;font-family:'Bitstream Vera Sans';text-align:end;letter-spacing:0px;word-spacing:0px;text-anchor:end;fill:#41576e;fill-opacity:1;stroke:none;stroke-width:1px;stroke-linecap:butt;stroke-linejoin:miter;stroke-opacity:1"
           xml:space="preserve"><tspan
             style="font-style:normal;font-variant:normal;font-weight:normal;font-stretch:normal;font-family:Big_Bottom_Cartoon;-inkscape-font-specification:Big_Bottom_Cartoon;fill:#41576e;fill-opacity:1"
             y="463.79074"
             x="399.03821"
             id="tspan6767"
             sodipodi:role="line">en</tspan></text>
      </g>
      <g
         transform="matrix(2.3935161,0,0,2.3935161,-230.1219,-418.76792)"
         id="text6715"
         style="font-style:normal;font-weight:normal;font-size:132.14112854px;line-height:125%;font-family:'Bitstream Vera Sans';text-align:end;letter-spacing:0px;word-spacing:0px;text-anchor:end;fill:url(#linearGradient7791);fill-opacity:1;stroke:#41576e;stroke-width:6;stroke-linecap:butt;stroke-linejoin:miter;stroke-opacity:1">
        <path
           inkscape:connector-curvature="0"
           id="path7667"
           d="m 238.38285,493.80894 c 2.22396,18.59236 -1.57353,38.67216 -14.1391,53.12074 -13.15167,16.01519 -33.79857,23.71964 -53.88054,26.16394 -15.02354,1.94295 -30.30043,1.07463 -45.22531,-1.32141 -1.58376,-7.19015 -1.09731,-14.81415 -1.58569,-22.19971 -0.54569,-24.29641 -0.4066,-48.62526 -0.36339,-72.9419 0.36016,-18.24326 0.29278,-36.52631 1.6848,-54.70643 -0.82209,-4.85708 4.60939,-3.59998 7.66419,-4.4928 22.03443,-2.76265 45.4559,-0.42075 64.91432,10.96771 23.4665,13.27335 38.42774,38.84464 40.93072,65.40986 z m -73.86689,-40.56732 c 0.26551,22.72179 2.11928,45.39636 3.83209,68.05268 -0.92704,6.02838 1.77429,10.01301 7.93623,7.6362 13.75619,-2.78013 23.58822,-16.03191 25.49548,-29.47253 2.92339,-20.68124 -12.34309,-41.88882 -32.771,-45.95207 -1.49356,-0.21501 -2.9847,-0.31773 -4.4928,-0.26428 z"
           style="font-style:normal;font-variant:normal;font-weight:normal;font-stretch:normal;font-family:Big_Bottom_Cartoon;-inkscape-font-specification:Big_Bottom_Cartoon;fill:url(#linearGradient7689);fill-opacity:1;stroke:#41576e;stroke-width:6;stroke-opacity:1" />
        <path
           inkscape:connector-curvature="0"
           id="path7669"
           d="m 299.69221,559.87951 c -1.5543,2.27382 -4.24739,4.96322 -6.71864,6.92199 -9.65274,7.51657 -23.73953,8.17856 -34.26152,2.0554 -11.82295,-6.3427 -19.04658,-19.1732 -20.72975,-32.23423 -1.93359,-15.69281 1.21781,-32.77083 11.74477,-45.00734 8.33722,-9.57573 21.50913,-14.57015 34.1082,-13.00262 6.57985,0.65319 13.05914,3.18242 18.23548,7.26777 3.27114,2.77032 -0.59208,-9.31026 5.28564,-7.26777 8.55249,-0.35676 17.2124,-0.1727 25.63538,1.48659 2.91657,-0.0448 2.19576,2.70508 2.2464,4.58087 -0.87457,16.48136 -1.61347,33.0291 -0.92499,49.55292 0.17332,11.72879 1.4489,23.40686 1.84998,35.10917 0.51331,2.1572 -0.82816,3.5101 -3.04491,3.32964 -9.77927,0.54509 -19.65074,0.40143 -29.39857,-0.49062 -6.2693,-0.0801 -3.77342,-8.2778 -4.02747,-12.30177 l 0,0 z M 287.1388,509.00517 c -8.69453,-1.57865 -16.02304,7.48108 -15.59265,15.67339 0.16041,8.47442 9.41885,16.49045 17.83905,13.10034 6.86745,-1.98362 11.88334,-9.0576 10.96771,-16.22032 -0.53386,-6.73232 -6.87151,-11.61352 -13.21411,-12.55341 z"
           style="font-style:normal;font-variant:normal;font-weight:normal;font-stretch:normal;font-family:Big_Bottom_Cartoon;-inkscape-font-specification:Big_Bottom_Cartoon;fill:url(#linearGradient7686);fill-opacity:1;stroke:#41576e;stroke-width:6;stroke-opacity:1" />
        <path
           inkscape:connector-curvature="0"
           id="path7671"
           d="m 353.36834,477.68773 c 3.3422,-1.77048 7.34677,-1.42301 11.02443,-1.71784 5.99103,0.12884 12.06909,0.13477 17.91448,1.61873 3.30628,1.91522 1.7779,7.05152 2.9071,10.27397 0.97319,10.70932 1.80746,21.43518 2.2464,32.18602 0.33645,8.25193 0.73726,16.50032 0.66071,24.76681 0.32631,4.0024 -0.15188,8.01163 0,12.02484 -0.44505,4.7268 -0.1431,9.63333 -1.84998,14.1391 -3.03052,1.60806 -6.78617,1.08229 -10.14183,1.55266 -3.86676,0.0928 -7.7217,0.2321 -11.58634,0.033 -5.07016,-0.0847 -10.193,-0.34122 -15.1392,-1.4866 -2.74529,-0.44808 -2.43438,-3.88563 -2.64283,-6.02674 -0.54533,-8.28928 -0.19062,-16.62806 0.18996,-24.91906 0.64487,-13.69046 1.74213,-27.35115 3.07411,-40.98667 0.71614,-6.43365 1.36208,-12.89962 2.5613,-19.24533 0.32618,-0.70546 0.14796,-1.67992 0.78169,-2.21293 z"
           style="font-style:normal;font-variant:normal;font-weight:normal;font-stretch:normal;font-family:Big_Bottom_Cartoon;-inkscape-font-specification:Big_Bottom_Cartoon;fill:url(#linearGradient7677);fill-opacity:1;stroke:#41576e;stroke-width:6;stroke-opacity:1" />
        <path
           inkscape:connector-curvature="0"
           id="path7673"
           d="m 395.05474,479.40556 c 14.74789,-1.38397 29.60282,-1.0809 44.40322,-1.41861 18.28245,-0.0828 36.59023,-0.22961 54.84313,0.85662 5.12001,1.9158 -2.55105,6.72343 -3.62904,9.85056 -12.19347,16.50035 -24.93689,32.58696 -37.60735,48.72139 11.90003,-2.23285 23.77745,-5.62045 35.90461,-5.9087 3.08238,4.08561 2.30513,10.16317 3.47416,15.08742 0.70901,7.75213 2.07912,15.57409 1.47796,23.3536 -4.82088,2.61544 -12.47524,1.41771 -18.41589,2.19452 -24.48285,0.92935 -49.02085,1.8929 -73.50873,0.7098 -3.09339,-0.44009 -11.18315,0.009 -7.70409,-5.08875 7.76229,-13.65244 18.10331,-25.62234 27.63466,-38.04934 5.33402,-6.69338 10.71506,-13.34998 16.20537,-19.91605 -13.09921,1.90015 -26.274,4.29234 -39.53789,4.11088 -4.75601,-2.20132 -2.73812,-10.15743 -3.81631,-14.88327 0.015,-6.49769 -1.07183,-13.22994 0.27619,-19.62007 z"
           style="font-style:normal;font-variant:normal;font-weight:normal;font-stretch:normal;font-family:Big_Bottom_Cartoon;-inkscape-font-specification:Big_Bottom_Cartoon;fill:url(#linearGradient7680);fill-opacity:1;stroke:#41576e;stroke-width:6;stroke-opacity:1" />
        <path
           inkscape:connector-curvature="0"
           id="path7675"
           d="m 557.26416,559.87951 c -1.55429,2.27382 -4.24739,4.96321 -6.71864,6.92199 -9.65274,7.51656 -23.73953,8.17856 -34.26152,2.0554 -11.82296,-6.3427 -19.04657,-19.17321 -20.72975,-32.23423 -1.9336,-15.69281 1.21781,-32.77083 11.74477,-45.00734 8.33722,-9.57572 21.50913,-14.57015 34.1082,-13.00262 6.57985,0.65318 13.05914,3.18242 18.23548,7.26777 3.27114,2.77032 -0.59208,-9.31027 5.28565,-7.26777 8.55248,-0.35676 17.21239,-0.1727 25.63537,1.48659 2.91658,-0.0448 2.19576,2.70508 2.2464,4.58087 -0.87455,16.48136 -1.61349,33.0291 -0.92498,49.55292 0.1733,11.72879 1.4489,23.40686 1.84997,35.10917 0.5133,2.15719 -0.82815,3.5101 -3.0449,3.32964 -9.77927,0.54509 -19.65075,0.40143 -29.39858,-0.49062 -6.2693,-0.0801 -3.77341,-8.2778 -4.02747,-12.30177 l 0,0 z m -12.55341,-50.87434 c -8.69453,-1.57866 -16.02303,7.48109 -15.59265,15.67339 0.16042,8.47442 9.41884,16.49045 17.83905,13.10034 6.86745,-1.98361 11.88333,-9.0576 10.96772,-16.22032 -0.53388,-6.73232 -6.87151,-11.61352 -13.21412,-12.55341 z"
           style="font-style:normal;font-variant:normal;font-weight:normal;font-stretch:normal;font-family:Big_Bottom_Cartoon;-inkscape-font-specification:Big_Bottom_Cartoon;fill:url(#linearGradient7683);fill-opacity:1;stroke:#41576e;stroke-width:6;stroke-opacity:1" />
      </g>
      <text
         sodipodi:linespacing="125%"
         id="text6723"
         y="531.88397"
         x="1198.3347"
         style="font-style:normal;font-weight:normal;font-size:359.16018677px;line-height:125%;font-family:'Bitstream Vera Sans';text-align:end;letter-spacing:0.2393516px;word-spacing:0px;text-anchor:end;fill:url(#linearGradient7915);fill-opacity:1;stroke:#41576e;stroke-width:14.36109638;stroke-linecap:butt;stroke-linejoin:miter;stroke-opacity:1"
         xml:space="preserve"><tspan
           dx="0 0 0 0 17.376928"
           style="font-style:normal;font-variant:normal;font-weight:normal;font-stretch:normal;font-family:Big_Bottom_Cartoon;-inkscape-font-specification:Big_Bottom_Cartoon;letter-spacing:0.2393516px;fill:url(#linearGradient7915);fill-opacity:1;stroke:#41576e;stroke-width:14.36109638;stroke-opacity:1"
           y="531.88397"
           x="1198.5741"
           id="tspan6725"
           sodipodi:role="line">Péril</tspan></text>
      <text
         sodipodi:linespacing="125%"
         id="text6727"
         y="691.32269"
         x="723.86517"
         style="font-style:normal;font-weight:normal;font-size:95.74064636px;line-height:125%;font-family:'Bitstream Vera Sans';text-align:end;letter-spacing:0px;word-spacing:0px;text-anchor:end;fill:url(#linearGradient7583);fill-opacity:1;stroke:#41576e;stroke-width:2.39351606;stroke-linecap:butt;stroke-linejoin:miter;stroke-opacity:1"
         xml:space="preserve"><tspan
           style="font-style:normal;font-variant:normal;font-weight:normal;font-stretch:normal;font-family:Big_Bottom_Cartoon;-inkscape-font-specification:Big_Bottom_Cartoon;fill:url(#linearGradient7583);fill-opacity:1;stroke:#41576e;stroke-width:2.39351606;stroke-opacity:1"
           y="691.32269"
           x="723.86517"
           id="tspan6729"
           sodipodi:role="line">en</tspan></text>
    </g>
  </g>
</svg>
